<svg width="24" height="24" viewBox="0 0 24 24" fill="none" xmlns="http://www.w3.org/2000/svg">
    <path d="M14.4484 7.14996C14.3294 8.92925 13.1037 10.2999 11.7672 10.2999C10.4306 10.2999 9.20295 8.92969 9.08596 7.14996C8.96408 5.29892 10.1572 4 11.7672 4C13.3771 4 14.5703 5.33261 14.4484 7.14996Z" stroke="#4A4B57" stroke-width="2" stroke-linecap="round" stroke-linejoin="round"/>
    <path d="M12 12C9.28451 12 6.67319 14.3121 6.019 18.815C5.93233 19.4107 6.15025 20 6.50735 20H17.4931C17.8501 20 18.0668 19.4107 17.9814 18.815C17.3272 14.24 14.7159 12 12 12Z" stroke="#4A4B57" stroke-width="2" stroke-miterlimit="10"/>
    <path d="M6.82514 7.93475C6.73008 9.35573 5.73965 10.4748 4.67204 10.4748C3.60443 10.4748 2.61238 9.35617 2.51894 7.93475C2.42185 6.45645 3.38587 5.3999 4.67204 5.3999C5.95821 5.3999 6.92223 6.48358 6.82514 7.93475Z" stroke="#4A4B57" stroke-width="2" stroke-linecap="round" stroke-linejoin="round"/>
    <path d="M8 12.64C7.27389 12.1778 6.47417 12 5.62657 12C3.53473 12 1.51933 13.4449 1.01447 16.2594C0.948098 16.6316 1.11625 17 1.39141 17H4.5" stroke="#4A4B57" stroke-width="2" stroke-miterlimit="10" stroke-linecap="round"/>
    <path d="M16.8445 7.93475C16.9396 9.35573 17.93 10.4748 18.9976 10.4748C20.0652 10.4748 21.0573 9.35617 21.1507 7.93475C21.2478 6.45645 20.2838 5.3999 18.9976 5.3999C17.7115 5.3999 16.7474 6.48358 16.8445 7.93475Z" stroke="#4A4B57" stroke-width="2" stroke-linecap="round" stroke-linejoin="round"/>
    <path d="M16 12.64C16.7261 12.1778 17.5258 12 18.3734 12C20.4653 12 22.4807 13.4449 22.9855 16.2594C23.0519 16.6316 22.8838 17 22.6086 17H19" stroke="#4A4B57" stroke-width="2" stroke-miterlimit="10" stroke-linecap="round"/>
</svg>
